<svg aria-hidden="true" style="position: absolute; width: 0; height: 0; overflow: hidden;" version="1.1" xmlns="http://www.w3.org/2000/svg" xmlns:xlink="http://www.w3.org/1999/xlink">
<defs>
<!-- using icons.getbootstrap.com only-->

<symbol id="icon-quote"  xmlns="http://www.w3.org/2000/svg"        viewBox="0 0 16 16">
  <path d="M12 12a1 1 0 0 0 1-1V8.558a1 1 0 0 0-1-1h-1.388c0-.351.021-.703.062-1.054.062-.372.166-.703.31-.992.145-.29.331-.517.559-.683.227-.186.516-.279.868-.279V3c-.579 0-1.085.124-1.52.372a3.322 3.322 0 0 0-1.085.992 4.92 4.92 0 0 0-.62 1.458A7.712 7.712 0 0 0 9 7.558V11a1 1 0 0 0 1 1h2Zm-6 0a1 1 0 0 0 1-1V8.558a1 1 0 0 0-1-1H4.612c0-.351.021-.703.062-1.054.062-.372.166-.703.31-.992.145-.29.331-.517.559-.683.227-.186.516-.279.868-.279V3c-.579 0-1.085.124-1.52.372a3.322 3.322 0 0 0-1.085.992 4.92 4.92 0 0 0-.62 1.458A7.712 7.712 0 0 0 3 7.558V11a1 1 0 0 0 1 1h2Z"/>
</symbol>

<symbol id="icon-facebook" xmlns="http://www.w3.org/2000/svg"   viewBox="0 0 16 16">
  <path d="M16 8.049c0-4.446-3.582-8.05-8-8.05C3.58 0-.002 3.603-.002 8.05c0 4.017 2.926 7.347 6.75 7.951v-5.625h-2.03V8.05H6.75V6.275c0-2.017 1.195-3.131 3.022-3.131.876 0 1.791.157 1.791.157v1.98h-1.009c-.993 0-1.303.621-1.303 1.258v1.51h2.218l-.354 2.326H9.25V16c3.824-.604 6.75-3.934 6.75-7.951z"/>
</symbol>

<symbol id="icon-star-fill" xmlns="http://www.w3.org/2000/svg"  class="bi bi-star-fill" viewBox="0 0 16 16">
  <path d="M3.612 15.443c-.386.198-.824-.149-.746-.592l.83-4.73L.173 6.765c-.329-.314-.158-.888.283-.95l4.898-.696L7.538.792c.197-.39.73-.39.927 0l2.184 4.327 4.898.696c.441.062.612.636.282.95l-3.522 3.356.83 4.73c.078.443-.36.79-.746.592L8 13.187l-4.389 2.256z"/>
</symbol>

<symbol id="icon-star-half" xmlns="http://www.w3.org/2000/svg"  class="bi bi-star-half" viewBox="0 0 16 16">
  <path d="M5.354 5.119 7.538.792A.516.516 0 0 1 8 .5c.183 0 .366.097.465.292l2.184 4.327 4.898.696A.537.537 0 0 1 16 6.32a.548.548 0 0 1-.17.445l-3.523 3.356.83 4.73c.078.443-.36.79-.746.592L8 13.187l-4.389 2.256a.52.52 0 0 1-.146.05c-.342.06-.668-.254-.6-.642l.83-4.73L.173 6.765a.55.55 0 0 1-.172-.403.58.58 0 0 1 .085-.302.513.513 0 0 1 .37-.245l4.898-.696zM8 12.027a.5.5 0 0 1 .232.056l3.686 1.894-.694-3.957a.565.565 0 0 1 .162-.505l2.907-2.77-4.052-.576a.525.525 0 0 1-.393-.288L8.001 2.223 8 2.226v9.8z"/>
</symbol>

<symbol id="icon-chevron-left" xmlns="http://www.w3.org/2000/svg"   class="bi bi-chevron-compact-left" viewBox="0 0 16 16">
  <path fill-rule="evenodd" d="M9.224 1.553a.5.5 0 0 1 .223.67L6.56 8l2.888 5.776a.5.5 0 1 1-.894.448l-3-6a.5.5 0 0 1 0-.448l3-6a.5.5 0 0 1 .67-.223z"/>
</symbol>

<symbol id="icon-chevron-right" xmlns="http://www.w3.org/2000/svg"   class="bi bi-chevron-compact-right" viewBox="0 0 16 16">
  <path fill-rule="evenodd" d="M6.776 1.553a.5.5 0 0 1 .671.223l3 6a.5.5 0 0 1 0 .448l-3 6a.5.5 0 1 1-.894-.448L9.44 8 6.553 2.224a.5.5 0 0 1 .223-.671z"/>
</symbol>

<symbol id="icon-check-fill" xmlns="http://www.w3.org/2000/svg"    viewBox="0 0 16 16">
  <path d="M2 0a2 2 0 0 0-2 2v12a2 2 0 0 0 2 2h12a2 2 0 0 0 2-2V2a2 2 0 0 0-2-2H2zm10.03 4.97a.75.75 0 0 1 .011 1.05l-3.992 4.99a.75.75 0 0 1-1.08.02L4.324 8.384a.75.75 0 1 1 1.06-1.06l2.094 2.093 3.473-4.425a.75.75 0 0 1 1.08-.022z"/>
</symbol>

<symbol id="icon-arrow-right" xmlns="http://www.w3.org/2000/svg" viewBox="0 0 16 16">
  <path fill-rule="evenodd" d="M1 8a.5.5 0 0 1 .5-.5h11.793l-3.147-3.146a.5.5 0 0 1 .708-.708l4 4a.5.5 0 0 1 0 .708l-4 4a.5.5 0 0 1-.708-.708L13.293 8.5H1.5A.5.5 0 0 1 1 8z"/>
</symbol>
</defs>
</svg>

